<svg xmlns="http://www.w3.org/2000/svg" width="30.739" height="27.66" viewBox="0 0 30.739 27.66">
  <path id="reply" d="M28.739,16.935A19.257,19.257,0,0,1,26.7,24.168q-.048.113-.168.385t-.216.481a1.759,1.759,0,0,1-.208.353.548.548,0,0,1-.449.273.468.468,0,0,1-.377-.16.6.6,0,0,1-.137-.4,3.279,3.279,0,0,1,.04-.425,3.316,3.316,0,0,0,.04-.377q.08-1.09.08-1.973a13.623,13.623,0,0,0-.281-2.9,8.737,8.737,0,0,0-.778-2.221,5.575,5.575,0,0,0-1.283-1.62,7.537,7.537,0,0,0-1.692-1.114,9.187,9.187,0,0,0-2.133-.682,20.241,20.241,0,0,0-2.47-.345q-1.242-.1-2.815-.1H10.264V17.45a1.021,1.021,0,0,1-1.748.722L.3,9.959a1.006,1.006,0,0,1,0-1.443L8.516.3A1.006,1.006,0,0,1,9.959.3a.987.987,0,0,1,.3.722V5.132h3.592q11.435,0,14.033,6.463a14.6,14.6,0,0,1,.85,5.341Z" transform="translate(1 1)" fill="#a8d4ff" stroke="#66b7fe" stroke-width="2"/>
</svg>
