<svg id="verified-user" xmlns="http://www.w3.org/2000/svg" width="41.516" height="39.883" viewBox="0 0 41.516 39.883">
  <path id="Path_114" data-name="Path 114" d="M17.451,32.687A10.328,10.328,0,1,0,7.123,22.359,10.328,10.328,0,0,0,17.451,32.687Zm5-6.254c-.47,1.553-2.483,2.721-4.895,2.721s-4.425-1.168-4.895-2.721H22.45ZM41.26,43.879l-9.45,7.875a.728.728,0,0,1-.96-.044l-4.7-4.705a.714.714,0,0,1,0-1.007l1.007-1.007a.714.714,0,0,1,1.007,0l3.326,3.325,7.95-6.625a.714.714,0,0,1,1,.091l.912,1.094A.714.714,0,0,1,41.26,43.879ZM25.038,48.114l1.792,1.792a67.441,67.441,0,0,1-9.379.589c-9.959,0-14.832-1.627-16.619-2.422A1.542,1.542,0,0,1,0,46.776v-3.4a10,10,0,0,1,8.841-9.9.826.826,0,0,1,.5.136,13.78,13.78,0,0,0,16.227,0,.826.826,0,0,1,.5-.136,10,10,0,0,1,8.841,9.9v.058L31.582,46.2l-2.314-2.313a2.279,2.279,0,0,0-3.223,0L25.038,44.89A2.281,2.281,0,0,0,25.038,48.114Z" transform="translate(0 -12.031)" fill="#a3a3a3"/>
</svg>
