<svg id="_018---Poem" data-name="018---Poem" xmlns="http://www.w3.org/2000/svg" width="39.761" height="39.76" viewBox="0 0 39.761 39.76">
  <path id="Shape" d="M39.45,3.1a.663.663,0,0,0-.675-.019,11.013,11.013,0,0,1-5.657,1.249A4.639,4.639,0,0,0,28.494,0H4.639A4.644,4.644,0,0,0,0,4.639V35.121A4.644,4.644,0,0,0,4.639,39.76H28.494a4.639,4.639,0,0,0,.663-9.224V15.44a13.8,13.8,0,0,1,4.978-2.332l.473-.151c4.611-1.48,5.13-8.935,5.152-9.251a.663.663,0,0,0-.309-.6ZM28.494,1.325a3.306,3.306,0,0,1,3.278,2.967c-.494-.026-.994-.06-1.494-.095a24.594,24.594,0,0,0-5.584.048.224.224,0,0,0-.047.007,10.772,10.772,0,0,0-6.126,3.206c-.164.165-.319.331-.471.494H7.886a4.633,4.633,0,0,0,0-6.627ZM1.325,35.121V4.639A3.313,3.313,0,1,1,4.639,7.952a.663.663,0,1,0,0,1.325h12.32A10.433,10.433,0,0,0,15.431,19.8a24.1,24.1,0,0,0-2.646,6.706H5.964a.663.663,0,1,0,0,1.325h7.367a.663.663,0,0,0,.392-.128l3.024-2.214a.663.663,0,0,0,.272-.53,22.538,22.538,0,0,1,.331-3.115,6.241,6.241,0,0,0,2.731.6,7.542,7.542,0,0,0,1.489-.15,8.29,8.29,0,0,0,4.892-3.109c.013-.013.019-.029.031-.042a10.575,10.575,0,0,0,1.044-1.632c.094-.184.194-.357.3-.524v13.5H4.639a.663.663,0,0,0,0,1.325,3.313,3.313,0,1,1-3.313,3.313ZM16.079,21.377a24.381,24.381,0,0,0-.374,3.234l-1.307.956A23.7,23.7,0,0,1,16.079,21.377ZM31.808,35.121a3.317,3.317,0,0,1-3.313,3.313H7.886a4.633,4.633,0,0,0,0-6.627H28.494A3.317,3.317,0,0,1,31.808,35.121ZM34.2,11.695l-.469.15a21.08,21.08,0,0,0-3.91,1.547,2.452,2.452,0,0,1-1.524-.608.663.663,0,0,0-.937.938,3.181,3.181,0,0,0,1,.663,8.01,8.01,0,0,0-2.013,2.522,9.357,9.357,0,0,1-.7,1.15,8.273,8.273,0,0,1-3.489-.757.663.663,0,1,0-.592,1.186,8.821,8.821,0,0,0,2.977.826A6.851,6.851,0,0,1,21.3,21a5.219,5.219,0,0,1-3.678-.5,17.1,17.1,0,0,1,.977-2.982C23.713,11.2,27.426,9.734,33.8,8.85a.663.663,0,1,0-.182-1.313c-6.609.917-10.7,2.527-16.085,9.2-.007.007-.012.015-.018.023-.433.537-.822,1.075-1.183,1.612a9.178,9.178,0,0,1,1.427-7.912,6.732,6.732,0,0,0,.16.972A.663.663,0,0,0,19.2,11.1a6.138,6.138,0,0,1-.095-2.333c.117-.125.235-.25.359-.376a9.623,9.623,0,0,1,4.094-2.528,6.132,6.132,0,0,0-.365,2.087.663.663,0,0,0,1.325,0,4.6,4.6,0,0,1,.671-2.441,18.3,18.3,0,0,1,3.329-.093,4.587,4.587,0,0,0-.62.914.663.663,0,0,0,.3.888.655.655,0,0,0,.3.069.663.663,0,0,0,.6-.368,3.93,3.93,0,0,1,1.234-1.392c2.622.18,5.319.345,7.971-.744C37.975,6.8,37,10.8,34.2,11.695Z" transform="translate(0 0)" fill="#a3a3a3"/>
  <path id="Shape-2" data-name="Shape" d="M8.659,36.317h5.268a.659.659,0,0,0,0-1.317H8.659a.659.659,0,1,0,0,1.317Z" transform="translate(-2.732 -11.802)" fill="#a3a3a3"/>
  <path id="Shape-3" data-name="Shape" d="M8.659,31.317h6.586a.659.659,0,1,0,0-1.317H8.659a.659.659,0,0,0,0,1.317Z" transform="translate(-2.732 -10.116)" fill="#a3a3a3"/>
  <path id="Shape-4" data-name="Shape" d="M8.659,26.317h6.586a.659.659,0,1,0,0-1.317H8.659a.659.659,0,1,0,0,1.317Z" transform="translate(-2.732 -8.43)" fill="#a3a3a3"/>
  <path id="Shape-5" data-name="Shape" d="M8.659,21.317h6.586a.659.659,0,1,0,0-1.317H8.659a.659.659,0,1,0,0,1.317Z" transform="translate(-2.732 -6.744)" fill="#a3a3a3"/>
</svg>
