<svg id="noun_Award_1659855" xmlns="http://www.w3.org/2000/svg" width="33.416" height="49.371" viewBox="0 0 33.416 49.371">
  <path id="Path_180" data-name="Path 180" d="M60.716,62.775a4.735,4.735,0,0,1-2.434.578h-.647L53.31,73.412l2.463,5.741a.393.393,0,0,0,.723,0l3.076-7.943,7.874,3.243a.393.393,0,0,0,.509-.515L62.409,61A4.712,4.712,0,0,1,60.716,62.775Z" transform="translate(-34.566 -30.019)" fill="#2bcb60"/>
  <path id="Path_181" data-name="Path 181" d="M38.975,66.231a5.87,5.87,0,0,1-3.469-1.416,5.2,5.2,0,0,0-.977-.578,1.457,1.457,0,0,0-.353-.029,4.885,4.885,0,0,0-.867.052c-.393.035-.8.069-1.231.069a4.729,4.729,0,0,1-2.434-.578,4.047,4.047,0,0,1-.671-.491L23.979,74.88a.393.393,0,0,0,.509.515l7.874-3.243,3.076,7.943a.393.393,0,0,0,.723,0L42.8,64.59l-.318.254A6.423,6.423,0,0,1,38.975,66.231Z" transform="translate(-22.179 -30.973)" fill="#2bcb60"/>
  <path id="Path_182" data-name="Path 182" d="M43.236,20.18a9.186,9.186,0,1,0,9.186,9.186A9.186,9.186,0,0,0,43.236,20.18Z" transform="translate(-26.441 -12.798)" fill="#2bcb60"/>
  <path id="Path_183" data-name="Path 183" d="M52.471,27.892c.353-1.307,1.942-2.5,1.942-3.92s-1.6-2.607-1.942-3.92.41-3.18-.272-4.365-2.671-1.439-3.642-2.416-1.214-2.948-2.416-3.648-3.012.087-4.365-.272-2.5-1.942-3.914-1.942S35.255,9,33.943,9.352s-3.18-.41-4.365.272-1.439,2.671-2.416,3.648-2.948,1.214-3.642,2.416.087,3.012-.277,4.365-1.942,2.5-1.942,3.92,1.59,2.607,1.942,3.914-.41,3.18.277,4.365,2.665,1.439,3.642,2.416,1.214,2.948,2.416,3.642,3.012-.087,4.365.277,2.5,1.942,3.92,1.942,2.607-1.6,3.914-1.942,3.18.41,4.365-.272,1.439-2.671,2.416-3.642,2.948-1.214,3.648-2.416S52.113,29.245,52.471,27.892ZM37.857,35.3A11.319,11.319,0,1,1,49.176,23.978,11.319,11.319,0,0,1,37.857,35.3Z" transform="translate(-21.3 -7.41)" fill="#2bcb60"/>
  <g id="Group_50" data-name="Group 50" transform="translate(10.338 11.133)">
    <g id="Group_26" data-name="Group 26">
      <path id="Path_169" data-name="Path 169" d="M161.96,171.536a1.237,1.237,0,0,0-1.746.155l-5.529,6.61-2.352-2.351a1.24,1.24,0,1,0-1.753,1.753l3.311,3.311a1.232,1.232,0,0,0,.877.363.39.39,0,0,0,.053,0,1.236,1.236,0,0,0,.9-.443l6.4-7.65A1.239,1.239,0,0,0,161.96,171.536Z" transform="translate(-150.216 -171.247)" fill="#fff"/>
    </g>
  </g>
</svg>
