<svg xmlns="http://www.w3.org/2000/svg" width="27.626" height="29.75" viewBox="0 0 27.626 29.75">
  <path id="calendar-check-o" d="M21.632,16l-8.5,8.5a.562.562,0,0,1-.764,0L7.586,19.723a.554.554,0,0,1-.15-.382.5.5,0,0,1,.15-.365l.764-.764a.5.5,0,0,1,.365-.15.554.554,0,0,1,.382.15l3.653,3.653,7.372-7.372a.554.554,0,0,1,.382-.15.5.5,0,0,1,.365.15l.764.764a.5.5,0,0,1,.15.365.554.554,0,0,1-.15.382ZM2.125,27.626H25.5v-17H2.125v17ZM8.5,7.438V2.656a.512.512,0,0,0-.531-.531H6.906a.512.512,0,0,0-.531.531V7.438a.512.512,0,0,0,.531.531H7.969A.512.512,0,0,0,8.5,7.438Zm12.751,0V2.656a.512.512,0,0,0-.531-.531H19.657a.512.512,0,0,0-.531.531V7.438a.512.512,0,0,0,.531.531H20.72a.512.512,0,0,0,.531-.531Zm6.375-1.063v21.25A2.153,2.153,0,0,1,25.5,29.75H2.125a2.042,2.042,0,0,1-1.494-.631A2.042,2.042,0,0,1,0,27.625V6.375A2.042,2.042,0,0,1,.631,4.881,2.042,2.042,0,0,1,2.125,4.25H4.249V2.656A2.558,2.558,0,0,1,5.03.78,2.559,2.559,0,0,1,6.906,0H7.969A2.558,2.558,0,0,1,9.845.78a2.558,2.558,0,0,1,.78,1.876V4.25H17V2.656A2.558,2.558,0,0,1,17.78.78,2.558,2.558,0,0,1,19.656,0h1.063a2.558,2.558,0,0,1,1.876.78,2.558,2.558,0,0,1,.78,1.876V4.25H25.5a2.042,2.042,0,0,1,1.494.631,2.042,2.042,0,0,1,.631,1.494Z" transform="translate(0)" fill="#c8c8c8"/>
</svg>
