<svg id="filter-circle" xmlns="http://www.w3.org/2000/svg" width="28.318" height="28.318" viewBox="0 0 28.318 28.318">
  <path id="Path_193" data-name="Path 193" d="M14.159,26.548A12.389,12.389,0,1,0,1.77,14.159,12.389,12.389,0,0,0,14.159,26.548Zm0,1.77A14.159,14.159,0,1,0,0,14.159,14.159,14.159,0,0,0,14.159,28.318Z" transform="translate(0 0)" fill-rule="evenodd"/>
  <path id="Path_194" data-name="Path 194" d="M13.829,22.754a.885.885,0,0,1,.885-.885h1.77a.885.885,0,0,1,0,1.77h-1.77A.885.885,0,0,1,13.829,22.754Zm-3.54-5.31a.885.885,0,0,1,.885-.885h8.849a.885.885,0,1,1,0,1.77H11.175A.885.885,0,0,1,10.29,17.445Zm-3.54-5.31a.885.885,0,0,1,.885-.885H23.564a.885.885,0,0,1,0,1.77H7.635A.885.885,0,0,1,6.75,12.135Z" transform="translate(-1.44 -2.401)" fill-rule="evenodd"/>
</svg>
