<svg xmlns="http://www.w3.org/2000/svg" width="30.234" height="27.659" viewBox="0 0 30.234 27.659">
  <path id="heart" d="M27.436,6.174A12.061,12.061,0,0,1,25.4,17.107a30.905,30.905,0,0,1-5.055,5.339c-1.663,1.548-5.385,4.611-6.371,4.7a8.069,8.069,0,0,1-2.542-1.66C7.543,22.526,3.356,18.93,1.233,15-.547,11.224-.55,6.555,2.22,3.661a8.191,8.191,0,0,1,11.756.778A7.961,7.961,0,0,1,16.7,2.18,8.19,8.19,0,0,1,27.436,6.174Z" transform="translate(1.195 -0.491)" fill="#ffa8a8" stroke="#fe6666" stroke-width="2"/>
</svg>
