<?xml version="1.0" encoding="utf-8"?>
<!-- Generator: Adobe Illustrator 16.0.0, SVG Export Plug-In . SVG Version: 6.00 Build 0)  -->
<!DOCTYPE svg PUBLIC "-//W3C//DTD SVG 1.1//EN" "http://www.w3.org/Graphics/SVG/1.1/DTD/svg11.dtd">
<svg version="1.1" id="Layer_1" xmlns="http://www.w3.org/2000/svg" xmlns:xlink="http://www.w3.org/1999/xlink" x="0px" y="0px"
	 width="39.25px" height="31.667px" viewBox="5.167 9.25 39.25 31.667" enable-background="new 5.167 9.25 39.25 31.667"
	 xml:space="preserve">
<g>
	<path fill="#38AF9A" d="M6.429,24.475c0.92,3.716,6.641-0.625,6.641-0.625c0.709-0.709,0.877-0.209,0.877-0.209
		c-1.463,2.38,0.961,5.593,0.961,5.593c0.25,1.127-1.254,0.75-1.254,0.75c-2.045,0.211-0.918,2.089-0.918,2.089
		c0.668,1.377,0.291,4.385,0.291,4.385c-0.459-0.209-0.877,0.125-0.877,0.125c-0.125,1.588,0.334,1.754,0.334,1.754l0.043,0.961
		c0.125,0.834,0.543,0.418,1.754-0.877c1.209-1.293,0.377-5.055,0.377-5.055c-0.045-0.875,0.455-0.794,0.455-0.794
		c6.184,0.126,6.311-2.213,6.311-2.213c0.25-0.668,1.293-0.127,1.293-0.127c3.34,2.213,10.271-0.082,10.271-0.082
		c0,1.041,1.668,0.543,1.668,0.543l-0.127,0.541c-0.711,1.418,0.752,1,0.752,1l0.041,0.377c1.92,0.086,2.756-0.293,2.756-0.293
		l1.881-1.166c1.963-1.002,0.832-2.463,0.832-2.463c0.041-1.799-2.254-1.17-2.254-1.17c-1.295,0-0.834-0.629-0.834-0.629
		c1.209-1,0.457-2.378,0.457-2.378c-0.668-0.5-0.457-1.961-0.457-1.961c0.439-0.637,0.615-1.435,0.688-2.098
		c1.01-0.095,1.808-0.225,2.422-0.35c0.539,1.316,1.691,0.875,1.691,0.875c1.338-0.336,0.725-3.342,0.725-3.342
		c-0.219-4.899-1.168-5.233-1.168-5.233l0.49-2.085l-0.879,0.958l-0.043-1.254l-1.336,1.668c-4.969-0.917-7.279,2.578-8.225,4.759
		c-0.369,0.854-1.172,1.792-1.877,2.512c-1.019,0.037-2.543,0.012-2.674-0.467c0,0,2.043-1.645,2.166-2.083
		c0,0,0.973,0.058,1.211,0.077c0.117,0.009,0.018-0.219,0.219-0.641c0,0,0.271-0.04,0.334-0.12c0.186-0.238-0.039-0.915,0.039-1.205
		c0.063-0.222,0.629-0.092,0.813-0.23c0.152-0.117,0.311-0.611-0.49-0.573c0,0-0.563-2.481-2.967-1.479c0,0-1.123,0.638-0.842,1.882
		c0,0-5.43,0.019-5.252,0.601c0,0-3.242,0.481-2.521,0.92c0,0,0.16,0.201,0.361,0.322c0,0-1.926,1.482-0.803,2.687
		c0,0,0.723,1.159,3.889,1.883c0,0,1.016,0.142,1.627,0.825c-1.883,0.068-3.541-0.445-3.541-0.445
		c-4.262-1.172-6.973,1.668-6.973,1.668c-2.383-0.541-4.041-0.029-4.887,0.879C9.106,24.309,6.433,24.463,6.429,24.475z
		 M38.438,19.811c0.006-0.389-0.021-0.651-0.021-0.651c0-2.503,0.67-1.963,0.67-1.963c-0.064,1.078,0.932,1.987,1.373,2.335
		C39.917,19.631,39.241,19.734,38.438,19.811z M36.995,30.77c0.338-0.92,2.006-1.422,2.006-1.422
		C38.247,30.852,36.995,30.77,36.995,30.77z M27.878,20.336h0.779c-0.175,0.127-0.361,0.244-0.548,0.342L27.878,20.336z"/>
</g>
</svg>
