<svg xmlns="http://www.w3.org/2000/svg" width="23.99" height="23.99" viewBox="0 0 23.99 23.99">
  <path id="instagram-white" d="M14.994,3c-3.258,0-3.666.014-4.945.072a8.828,8.828,0,0,0-2.911.558A6.13,6.13,0,0,0,3.629,7.138a8.844,8.844,0,0,0-.558,2.911C3.014,11.329,3,11.737,3,14.994s.014,3.666.072,4.945a8.828,8.828,0,0,0,.558,2.911A6.128,6.128,0,0,0,7.139,26.36a8.844,8.844,0,0,0,2.911.558c1.279.058,1.688.072,4.945.072s3.666-.014,4.945-.072a8.827,8.827,0,0,0,2.911-.558,6.128,6.128,0,0,0,3.509-3.509,8.844,8.844,0,0,0,.558-2.911c.058-1.279.072-1.688.072-4.945s-.014-3.666-.072-4.945a8.827,8.827,0,0,0-.558-2.911,6.128,6.128,0,0,0-3.509-3.509,8.844,8.844,0,0,0-2.911-.558C18.66,3.014,18.252,3,14.994,3m0,2.161c3.2,0,3.582.012,4.846.07a6.664,6.664,0,0,1,2.229.413A3.971,3.971,0,0,1,24.345,7.92a6.656,6.656,0,0,1,.413,2.227c.058,1.266.07,1.643.07,4.847s-.012,3.582-.07,4.846a6.706,6.706,0,0,1-.413,2.229,3.971,3.971,0,0,1-2.277,2.277,6.656,6.656,0,0,1-2.227.413c-1.264.058-1.643.07-4.847.07s-3.583-.012-4.846-.07a6.706,6.706,0,0,1-2.229-.413,3.971,3.971,0,0,1-2.277-2.277,6.615,6.615,0,0,1-.413-2.227c-.058-1.266-.07-1.643-.07-4.847s.012-3.582.07-4.846A6.664,6.664,0,0,1,5.644,7.92,3.971,3.971,0,0,1,7.92,5.644a6.615,6.615,0,0,1,2.227-.413c1.266-.058,1.643-.07,4.847-.07m0,13.831a4,4,0,1,1,4-4,4,4,0,0,1-4,4m0-10.157a6.159,6.159,0,1,0,6.159,6.159,6.159,6.159,0,0,0-6.159-6.159m7.842-.243A1.439,1.439,0,1,1,21.4,7.153a1.439,1.439,0,0,1,1.439,1.439" transform="translate(-3 -3)" fill="#fff" fill-rule="evenodd"/>
</svg>
