<svg xmlns="http://www.w3.org/2000/svg" xmlns:xlink="http://www.w3.org/1999/xlink" width="24.455" height="24.455" viewBox="0 0 24.455 24.455">
  <defs>
    <linearGradient id="linear-gradient" x1="-0.063" y1="-0.141" x2="1" y2="1.087" gradientUnits="objectBoundingBox">
      <stop offset="0" stop-color="#405de6"/>
      <stop offset="0.105" stop-color="#5851db"/>
      <stop offset="0.217" stop-color="#833ab4"/>
      <stop offset="0.318" stop-color="#c13584"/>
      <stop offset="0.435" stop-color="#e1306c"/>
      <stop offset="0.544" stop-color="#fd1d1d"/>
      <stop offset="0.669" stop-color="#f56040"/>
      <stop offset="0.787" stop-color="#f77737"/>
      <stop offset="0.891" stop-color="#fcaf45"/>
      <stop offset="1" stop-color="#ffdc80"/>
    </linearGradient>
  </defs>
  <path id="instagram" d="M15.227,3c-3.321,0-3.737.015-5.041.073a9,9,0,0,0-2.968.569A6.249,6.249,0,0,0,3.642,7.218a9.015,9.015,0,0,0-.569,2.968C3.014,11.49,3,11.906,3,15.227s.014,3.737.073,5.041a9,9,0,0,0,.569,2.968,6.247,6.247,0,0,0,3.577,3.577,9.015,9.015,0,0,0,2.968.569c1.3.059,1.721.073,5.041.073s3.737-.015,5.041-.073a9,9,0,0,0,2.968-.569,6.247,6.247,0,0,0,3.577-3.577,9.015,9.015,0,0,0,.569-2.968c.059-1.3.073-1.721.073-5.041s-.015-3.737-.073-5.041a9,9,0,0,0-.569-2.968,6.247,6.247,0,0,0-3.577-3.577,9.015,9.015,0,0,0-2.968-.569C18.963,3.015,18.548,3,15.227,3m0,2.2c3.265,0,3.651.012,4.94.071a6.793,6.793,0,0,1,2.272.421,4.048,4.048,0,0,1,2.321,2.321,6.785,6.785,0,0,1,.421,2.27c.059,1.29.071,1.675.071,4.941s-.012,3.651-.071,4.94a6.836,6.836,0,0,1-.421,2.272,4.048,4.048,0,0,1-2.321,2.321,6.785,6.785,0,0,1-2.27.421c-1.289.059-1.675.071-4.941.071s-3.653-.012-4.94-.071a6.836,6.836,0,0,1-2.272-.421,4.048,4.048,0,0,1-2.321-2.321,6.743,6.743,0,0,1-.421-2.27c-.059-1.29-.071-1.675-.071-4.941s.012-3.651.071-4.94a6.793,6.793,0,0,1,.421-2.272A4.048,4.048,0,0,1,8.015,5.695a6.743,6.743,0,0,1,2.27-.421c1.29-.059,1.675-.071,4.941-.071m0,14.1A4.075,4.075,0,1,1,19.3,15.227,4.075,4.075,0,0,1,15.227,19.3m0-10.354a6.279,6.279,0,1,0,6.279,6.279,6.279,6.279,0,0,0-6.279-6.279M23.221,8.7a1.467,1.467,0,1,1-1.467-1.467A1.467,1.467,0,0,1,23.221,8.7" transform="translate(-3 -3)" fill-rule="evenodd" fill="url(#linear-gradient)"/>
</svg>
