<svg id="google-icon" xmlns="http://www.w3.org/2000/svg" width="24.179" height="24.672" viewBox="0 0 24.179 24.672">
  <path id="Path_148" data-name="Path 148" d="M142.393,109.283a10.572,10.572,0,0,0-.26-2.522H130.55v4.578h6.8a6.028,6.028,0,0,1-2.522,4l-.023.153,3.662,2.837.254.025a12.061,12.061,0,0,0,3.673-9.074" transform="translate(-118.214 -96.673)" fill="#4285f4"/>
  <path id="Path_149" data-name="Path 149" d="M24.945,166.266a11.758,11.758,0,0,0,8.169-2.988l-3.893-3.016a7.3,7.3,0,0,1-4.276,1.234,7.426,7.426,0,0,1-7.018-5.126l-.145.012-3.808,2.947-.05.138a12.327,12.327,0,0,0,11.02,6.8" transform="translate(-12.609 -141.594)" fill="#34a853"/>
  <path id="Path_150" data-name="Path 150" d="M5.318,79.349a7.594,7.594,0,0,1-.411-2.44,7.98,7.98,0,0,1,.4-2.44L5.3,74.306,1.442,71.312l-.126.06a12.31,12.31,0,0,0,0,11.075l4-3.1" transform="translate(0 -64.574)" fill="#fbbc05"/>
  <path id="Path_151" data-name="Path 151" d="M24.945,4.77a6.837,6.837,0,0,1,4.77,1.837l3.481-3.4A11.852,11.852,0,0,0,24.945,0a12.327,12.327,0,0,0-11.02,6.8l3.989,3.1A7.457,7.457,0,0,1,24.945,4.77" transform="translate(-12.609)" fill="#eb4335"/>
</svg>
