<?xml version="1.0" encoding="utf-8"?>
<!-- Generator: Adobe Illustrator 16.0.0, SVG Export Plug-In . SVG Version: 6.00 Build 0)  -->
<!DOCTYPE svg PUBLIC "-//W3C//DTD SVG 1.1//EN" "http://www.w3.org/Graphics/SVG/1.1/DTD/svg11.dtd">
<svg version="1.1" id="Layer_1" xmlns="http://www.w3.org/2000/svg" xmlns:xlink="http://www.w3.org/1999/xlink" x="0px" y="0px"
	 width="250px" height="60px" viewBox="0 0 250 60" enable-background="new 0 0 250 60" xml:space="preserve">
<g>
	<g>
		<path fill="#141414" d="M212.125,21.76c0.92,3.715,6.641-0.625,6.641-0.625c0.708-0.709,0.877-0.209,0.877-0.209
			c-1.464,2.38,0.96,5.593,0.96,5.593c0.25,1.127-1.254,0.75-1.254,0.75c-2.045,0.211-0.918,2.088-0.918,2.088
			c0.669,1.378,0.292,4.385,0.292,4.385c-0.459-0.21-0.877,0.125-0.877,0.125c-0.125,1.587,0.333,1.754,0.333,1.754l0.044,0.961
			c0.125,0.833,0.543,0.417,1.753-0.878c1.21-1.293,0.377-5.053,0.377-5.053c-0.044-0.876,0.456-0.795,0.456-0.795
			c6.182,0.126,6.309-2.212,6.309-2.212c0.25-0.668,1.293-0.127,1.293-0.127c3.34,2.212,10.273-0.082,10.273-0.082
			c0,1.041,1.668,0.542,1.668,0.542l-0.128,0.542c-0.71,1.418,0.752,1,0.752,1l0.042,0.377c1.92,0.085,2.755-0.293,2.755-0.293
			l1.881-1.167c1.962-1.001,0.833-2.462,0.833-2.462c0.041-1.798-2.254-1.17-2.254-1.17c-1.295,0-0.835-0.628-0.835-0.628
			c1.21-1,0.458-2.379,0.458-2.379c-0.668-0.501-0.458-1.962-0.458-1.962c0.44-0.637,0.616-1.434,0.687-2.097
			c1.01-0.095,1.808-0.225,2.422-0.35c0.539,1.316,1.692,0.875,1.692,0.875c1.337-0.336,0.725-3.341,0.725-3.341
			c-0.219-4.9-1.168-5.234-1.168-5.234l0.489-2.085l-0.879,0.958l-0.042-1.254l-1.335,1.668c-4.969-0.917-7.281,2.578-8.226,4.759
			c-0.368,0.854-1.171,1.792-1.876,2.511c-1.018,0.037-2.543,0.012-2.675-0.466c0,0,2.043-1.645,2.166-2.083
			c0,0,0.973,0.058,1.212,0.077c0.116,0.009,0.018-0.219,0.219-0.641c0,0,0.271-0.04,0.334-0.12c0.184-0.238-0.04-0.915,0.039-1.205
			c0.062-0.222,0.629-0.092,0.811-0.23c0.154-0.117,0.312-0.611-0.49-0.573c0,0-0.562-2.481-2.966-1.48c0,0-1.124,0.638-0.842,1.882
			c0,0-5.429,0.019-5.251,0.601c0,0-3.244,0.481-2.523,0.92c0,0,0.16,0.201,0.362,0.322c0,0-1.925,1.482-0.803,2.687
			c0,0,0.722,1.159,3.889,1.883c0,0,1.015,0.142,1.626,0.825c-1.881,0.068-3.54-0.446-3.54-0.446
			c-4.261-1.171-6.972,1.669-6.972,1.669c-2.383-0.541-4.042-0.029-4.888,0.879C214.803,21.593,212.129,21.747,212.125,21.76z
			 M244.132,17.095c0.007-0.388-0.02-0.651-0.02-0.651c0-2.503,0.669-1.963,0.669-1.963c-0.064,1.078,0.931,1.987,1.374,2.335
			C245.613,16.916,244.938,17.019,244.132,17.095z M242.692,28.053c0.337-0.918,2.005-1.421,2.005-1.421
			C243.943,28.136,242.692,28.053,242.692,28.053z M233.574,17.62h0.78c-0.174,0.127-0.362,0.244-0.548,0.343L233.574,17.62z"/>
	</g>
	<path fill="#38AF9A" d="M15.211,52.095c0,0.606-0.247,1.068-0.74,1.385c-0.494,0.315-1.195,0.448-2.107,0.399l-1.024-0.076
		c-4.251-0.305-6.377-2.582-6.377-6.834v-8.275H3.064c-0.683,0-1.208-0.152-1.575-0.455c-0.367-0.304-0.551-0.746-0.551-1.328
		s0.184-1.025,0.551-1.329s0.892-0.456,1.575-0.456h1.898v-3.492c0-0.683,0.214-1.227,0.646-1.632
		c0.43-0.405,1.012-0.607,1.746-0.607c0.709,0,1.278,0.202,1.709,0.607c0.429,0.405,0.645,0.949,0.645,1.632v3.492h3.227
		c0.684,0,1.208,0.152,1.575,0.456c0.366,0.304,0.55,0.747,0.55,1.329s-0.184,1.024-0.55,1.328
		c-0.367,0.303-0.892,0.455-1.575,0.455H9.707v8.617c0,1.873,0.861,2.873,2.581,3l1.025,0.075
		C14.578,50.461,15.211,51.031,15.211,52.095z"/>
	<path fill="#38AF9A" d="M31.477,36.587c1.252,1.278,1.878,3.222,1.878,5.827v9.263c0,0.683-0.203,1.221-0.607,1.612
		c-0.405,0.394-0.962,0.59-1.67,0.59c-0.659,0-1.196-0.203-1.614-0.609c-0.417-0.402-0.626-0.936-0.626-1.593v-0.835
		c-0.43,0.986-1.107,1.759-2.031,2.314c-0.923,0.557-1.993,0.836-3.208,0.836c-1.24,0-2.367-0.254-3.378-0.76
		c-1.013-0.506-1.81-1.201-2.391-2.088c-0.583-0.885-0.874-1.873-0.874-2.961c0-1.366,0.347-2.441,1.044-3.227
		c0.696-0.784,1.827-1.354,3.397-1.708c1.568-0.354,3.732-0.532,6.491-0.532h0.949v-0.872c0-1.239-0.265-2.146-0.797-2.714
		c-0.531-0.57-1.392-0.854-2.581-0.854c-0.734,0-1.48,0.108-2.24,0.323c-0.759,0.215-1.658,0.524-2.695,0.93
		c-0.659,0.329-1.14,0.492-1.443,0.492c-0.455,0-0.829-0.163-1.12-0.492s-0.436-0.76-0.436-1.291c0-0.43,0.107-0.803,0.322-1.119
		s0.575-0.614,1.082-0.893c0.885-0.48,1.941-0.859,3.169-1.139c1.228-0.278,2.436-0.418,3.625-0.418
		C28.307,34.67,30.224,35.309,31.477,36.587z M27.643,49.304c0.797-0.848,1.195-1.942,1.195-3.283v-0.798h-0.684
		c-1.695,0-3.011,0.076-3.947,0.229c-0.937,0.151-1.608,0.416-2.012,0.797c-0.404,0.379-0.607,0.898-0.607,1.557
		c0,0.811,0.284,1.475,0.854,1.992c0.569,0.52,1.271,0.778,2.107,0.778C25.814,50.575,26.846,50.152,27.643,49.304z"/>
	<path fill="#38AF9A" d="M55.563,42.301v9.338c0,0.709-0.209,1.266-0.627,1.67s-0.994,0.607-1.728,0.607
		c-0.734,0-1.316-0.203-1.746-0.607c-0.43-0.404-0.646-0.961-0.646-1.67v-9.338c0-1.342-0.272-2.322-0.815-2.942
		c-0.545-0.62-1.399-0.931-2.563-0.931c-1.367,0-2.461,0.431-3.284,1.291c-0.822,0.859-1.233,2.012-1.233,3.454v8.466
		c0,0.709-0.216,1.266-0.646,1.67c-0.43,0.404-1.012,0.607-1.746,0.607s-1.31-0.203-1.727-0.607
		c-0.417-0.404-0.626-0.961-0.626-1.67V28.938c0-0.657,0.222-1.189,0.665-1.594c0.442-0.405,1.019-0.608,1.727-0.608
		s1.278,0.19,1.708,0.57c0.429,0.379,0.646,0.897,0.646,1.556v8.845c0.632-0.986,1.474-1.74,2.524-2.258
		c1.05-0.52,2.245-0.779,3.587-0.779C53.385,34.67,55.563,37.214,55.563,42.301z"/>
	<path fill="#38AF9A" d="M87.087,36.474c1.075,1.202,1.614,3.144,1.614,5.827v9.338c0,0.734-0.222,1.297-0.664,1.688
		c-0.444,0.392-1.019,0.589-1.727,0.589c-0.684,0-1.248-0.197-1.689-0.589c-0.443-0.392-0.665-0.954-0.665-1.688v-9.338
		c0-1.393-0.247-2.385-0.74-2.98c-0.494-0.595-1.247-0.893-2.259-0.893c-1.24,0-2.228,0.426-2.96,1.271
		c-0.734,0.85-1.101,2.006-1.101,3.474v8.466c0,0.734-0.222,1.297-0.664,1.688c-0.443,0.392-1.006,0.589-1.689,0.589
		c-0.683,0-1.252-0.197-1.708-0.589c-0.456-0.392-0.683-0.954-0.683-1.688v-9.338c0-1.393-0.247-2.385-0.74-2.98
		c-0.494-0.595-1.248-0.893-2.259-0.893c-1.24,0-2.221,0.426-2.941,1.271c-0.721,0.85-1.082,2.006-1.082,3.474v8.466
		c0,0.734-0.228,1.297-0.683,1.688c-0.456,0.392-1.025,0.589-1.708,0.589s-1.247-0.197-1.689-0.589s-0.665-0.954-0.665-1.688v-14.69
		c0-0.708,0.228-1.253,0.683-1.632c0.456-0.381,1.025-0.57,1.709-0.57c0.657,0,1.195,0.184,1.613,0.55
		c0.418,0.368,0.626,0.892,0.626,1.575v0.912c0.583-1.012,1.36-1.785,2.334-2.316c0.974-0.531,2.094-0.797,3.36-0.797
		c2.784,0,4.644,1.164,5.581,3.492c0.556-1.063,1.378-1.91,2.467-2.543c1.087-0.633,2.315-0.949,3.682-0.949
		C84.462,34.67,86.012,35.271,87.087,36.474z"/>
	<path fill="#38AF9A" d="M93.825,30.665c-0.506-0.468-0.758-1.082-0.758-1.84c0-0.759,0.252-1.367,0.758-1.823
		c0.506-0.456,1.19-0.683,2.051-0.683c0.834,0,1.511,0.228,2.03,0.683c0.519,0.456,0.779,1.063,0.779,1.823
		c0,0.759-0.254,1.373-0.76,1.84c-0.506,0.468-1.189,0.703-2.049,0.703C95.015,31.368,94.331,31.133,93.825,30.665z M94.186,53.327
		c-0.442-0.392-0.664-0.954-0.664-1.688V36.986c0-0.734,0.222-1.291,0.664-1.67c0.442-0.381,1.007-0.57,1.69-0.57
		c0.683,0,1.252,0.189,1.708,0.57c0.456,0.379,0.683,0.936,0.683,1.67v14.652c0,0.734-0.228,1.297-0.683,1.688
		s-1.025,0.589-1.708,0.589C95.192,53.916,94.628,53.719,94.186,53.327z"/>
	<path fill="#38AF9A" d="M118.917,36.568c1.088,1.266,1.633,3.176,1.633,5.732v9.338c0,0.709-0.209,1.266-0.627,1.67
		s-0.993,0.607-1.727,0.607c-0.734,0-1.316-0.203-1.746-0.607c-0.431-0.404-0.645-0.961-0.645-1.67v-9.072
		c0-1.443-0.272-2.492-0.816-3.151c-0.544-0.657-1.398-0.987-2.563-0.987c-1.367,0-2.461,0.431-3.284,1.291
		c-0.822,0.859-1.234,2.012-1.234,3.454v8.466c0,0.709-0.215,1.266-0.645,1.67c-0.431,0.404-1.013,0.607-1.746,0.607
		c-0.734,0-1.311-0.203-1.728-0.607c-0.417-0.404-0.626-0.961-0.626-1.67v-14.69c0-0.658,0.215-1.19,0.645-1.595
		c0.43-0.404,1.012-0.607,1.746-0.607c0.658,0,1.196,0.195,1.614,0.588c0.417,0.393,0.625,0.906,0.625,1.537v1.025
		c0.632-1.037,1.481-1.834,2.543-2.391c1.063-0.557,2.265-0.836,3.606-0.836C116.171,34.67,117.828,35.303,118.917,36.568z"/>
	<path fill="#141414" d="M142.643,51.639c0,0.582-0.21,1.101-0.627,1.557c-0.418,0.455-0.905,0.684-1.461,0.684
		c-0.558,0-1.077-0.229-1.557-0.684l-8.883-8.049v6.492c0,0.734-0.229,1.29-0.684,1.67c-0.455,0.379-1.025,0.57-1.709,0.57
		c-0.683,0-1.246-0.191-1.688-0.57c-0.443-0.38-0.665-0.936-0.665-1.67V28.977c0-0.734,0.222-1.291,0.665-1.67
		c0.442-0.38,1.006-0.57,1.688-0.57c0.684,0,1.254,0.19,1.709,0.57c0.455,0.379,0.684,0.936,0.684,1.67v14.272l8.121-7.782
		c0.457-0.455,0.977-0.684,1.557-0.684c0.583,0,1.089,0.217,1.52,0.646c0.43,0.43,0.646,0.937,0.646,1.519
		c0,0.581-0.241,1.114-0.722,1.593l-5.959,5.543l6.605,5.922C142.389,50.487,142.643,51.031,142.643,51.639z"/>
	<path fill="#141414" d="M162.114,35.354c0.431,0.404,0.646,0.949,0.646,1.633v14.728c0,0.659-0.221,1.19-0.664,1.595
		c-0.442,0.404-1.019,0.607-1.728,0.607c-0.683,0-1.228-0.189-1.632-0.569c-0.405-0.38-0.609-0.898-0.609-1.558v-0.947
		c-0.58,1.012-1.365,1.79-2.352,2.334c-0.986,0.543-2.102,0.816-3.341,0.816c-4.556,0-6.833-2.557-6.833-7.668v-9.338
		c0-0.684,0.215-1.229,0.646-1.633c0.428-0.404,0.998-0.607,1.707-0.607c0.734,0,1.316,0.203,1.746,0.607
		c0.431,0.404,0.646,0.949,0.646,1.633v9.375c0,1.317,0.266,2.291,0.797,2.924c0.532,0.632,1.367,0.949,2.506,0.949
		c1.315,0,2.372-0.438,3.171-1.311c0.795-0.873,1.195-2.03,1.195-3.473v-8.465c0-0.684,0.213-1.229,0.645-1.633
		c0.43-0.404,0.999-0.607,1.708-0.607C161.102,34.746,161.684,34.949,162.114,35.354z"/>
	<path fill="#141414" d="M168.358,53.327c-0.442-0.392-0.664-0.954-0.664-1.688V28.977c0-0.734,0.222-1.291,0.664-1.67
		c0.443-0.38,1.007-0.57,1.688-0.57c0.685,0,1.253,0.19,1.71,0.57c0.455,0.379,0.683,0.936,0.683,1.67v22.662
		c0,0.734-0.228,1.297-0.683,1.688c-0.457,0.392-1.025,0.589-1.71,0.589C169.365,53.916,168.802,53.719,168.358,53.327z"/>
	<path fill="#141414" d="M193.735,35.354c0.43,0.404,0.646,0.949,0.646,1.633v14.728c0,0.659-0.223,1.19-0.665,1.595
		s-1.02,0.607-1.728,0.607c-0.683,0-1.228-0.189-1.632-0.569s-0.608-0.898-0.608-1.558v-0.947c-0.581,1.012-1.365,1.79-2.352,2.334
		c-0.988,0.543-2.102,0.816-3.341,0.816c-4.555,0-6.833-2.557-6.833-7.668v-9.338c0-0.684,0.215-1.229,0.646-1.633
		c0.43-0.404,0.999-0.607,1.707-0.607c0.732,0,1.315,0.203,1.745,0.607c0.431,0.404,0.646,0.949,0.646,1.633v9.375
		c0,1.317,0.265,2.291,0.796,2.924c0.532,0.632,1.367,0.949,2.506,0.949c1.316,0,2.374-0.438,3.171-1.311
		c0.796-0.873,1.194-2.03,1.194-3.473v-8.465c0-0.684,0.215-1.229,0.646-1.633c0.43-0.404,0.999-0.607,1.707-0.607
		C192.723,34.746,193.304,34.949,193.735,35.354z"/>
	<path fill="#141414" d="M214.271,35.847c1.24,0.784,2.21,1.897,2.904,3.341s1.043,3.125,1.043,5.049s-0.349,3.625-1.043,5.105
		s-1.67,2.626-2.922,3.436c-1.254,0.81-2.676,1.215-4.271,1.215c-1.342,0-2.536-0.291-3.586-0.873s-1.854-1.391-2.411-2.431v0.95
		c0,0.684-0.215,1.229-0.646,1.631c-0.431,0.406-0.999,0.609-1.708,0.609c-0.708,0-1.271-0.203-1.689-0.609
		c-0.417-0.402-0.626-0.947-0.626-1.631V28.938c0-0.657,0.222-1.189,0.664-1.594c0.443-0.405,1.019-0.608,1.728-0.608
		c0.708,0,1.278,0.19,1.707,0.57c0.43,0.379,0.646,0.897,0.646,1.556v8.958c0.556-1.012,1.354-1.789,2.393-2.334
		c1.037-0.545,2.214-0.816,3.529-0.816C211.601,34.67,213.03,35.063,214.271,35.847z M212.222,48.715
		c0.835-1.063,1.253-2.555,1.253-4.479c0-1.898-0.412-3.354-1.233-4.365c-0.822-1.013-1.992-1.52-3.512-1.52
		c-1.519,0-2.689,0.513-3.514,1.538c-0.821,1.024-1.231,2.499-1.231,4.423s0.41,3.403,1.231,4.441
		c0.824,1.037,1.995,1.557,3.514,1.557C210.223,50.311,211.386,49.777,212.222,48.715z"/>
	<path fill="#141414" d="M238.527,35.354c0.43,0.404,0.646,0.949,0.646,1.633v14.728c0,0.659-0.224,1.19-0.666,1.595
		s-1.018,0.607-1.725,0.607c-0.685,0-1.23-0.189-1.633-0.569c-0.406-0.38-0.609-0.898-0.609-1.558v-0.947
		c-0.581,1.012-1.366,1.79-2.353,2.334c-0.986,0.543-2.102,0.816-3.34,0.816c-4.555,0-6.834-2.557-6.834-7.668v-9.338
		c0-0.684,0.217-1.229,0.646-1.633s0.999-0.607,1.707-0.607c0.734,0,1.317,0.203,1.747,0.607s0.645,0.949,0.645,1.633v9.375
		c0,1.317,0.265,2.291,0.798,2.924c0.53,0.632,1.365,0.949,2.505,0.949c1.315,0,2.374-0.438,3.17-1.311
		c0.798-0.873,1.196-2.03,1.196-3.473v-8.465c0-0.684,0.215-1.229,0.645-1.633s0.999-0.607,1.71-0.607
		C237.515,34.746,238.098,34.949,238.527,35.354z"/>
</g>
</svg>
