<?xml version="1.0" encoding="utf-8"?>
<!-- Generator: Adobe Illustrator 16.0.0, SVG Export Plug-In . SVG Version: 6.00 Build 0)  -->
<!DOCTYPE svg PUBLIC "-//W3C//DTD SVG 1.1//EN" "http://www.w3.org/Graphics/SVG/1.1/DTD/svg11.dtd">
<svg version="1.1" id="Layer_1" xmlns="http://www.w3.org/2000/svg" xmlns:xlink="http://www.w3.org/1999/xlink" x="0px" y="0px"
	 width="300px" height="50px" viewBox="0 0 300 50" enable-background="new 0 0 300 50" xml:space="preserve">
<g>
	<path fill="#141414" d="M251.429,23.475c0.92,3.716,6.641-0.625,6.641-0.625c0.709-0.709,0.877-0.209,0.877-0.209
		c-1.463,2.381,0.961,5.594,0.961,5.594c0.25,1.127-1.254,0.75-1.254,0.75c-2.045,0.211-0.918,2.088-0.918,2.088
		c0.668,1.377,0.291,4.385,0.291,4.385c-0.459-0.209-0.877,0.125-0.877,0.125c-0.125,1.588,0.334,1.754,0.334,1.754l0.043,0.961
		c0.125,0.834,0.543,0.418,1.754-0.877c1.209-1.293,0.377-5.055,0.377-5.055c-0.045-0.875,0.455-0.794,0.455-0.794
		c6.184,0.126,6.311-2.212,6.311-2.212c0.25-0.668,1.293-0.127,1.293-0.127c3.34,2.212,10.271-0.082,10.271-0.082
		c0,1.041,1.668,0.542,1.668,0.542l-0.127,0.542c-0.711,1.418,0.752,1,0.752,1l0.041,0.377c1.92,0.085,2.756-0.293,2.756-0.293
		l1.881-1.167c1.963-1.001,0.832-2.462,0.832-2.462c0.041-1.799-2.254-1.17-2.254-1.17c-1.295,0-0.834-0.629-0.834-0.629
		c1.209-1,0.457-2.379,0.457-2.379c-0.668-0.5-0.457-1.961-0.457-1.961c0.439-0.637,0.615-1.435,0.688-2.098
		c1.01-0.095,1.807-0.225,2.422-0.35c0.539,1.316,1.691,0.875,1.691,0.875c1.338-0.336,0.725-3.342,0.725-3.342
		c-0.219-4.899-1.168-5.233-1.168-5.233l0.49-2.085l-0.879,0.958l-0.043-1.254l-1.336,1.668c-4.969-0.917-7.279,2.578-8.225,4.759
		c-0.369,0.854-1.172,1.792-1.877,2.512c-1.018,0.037-2.543,0.012-2.674-0.467c0,0,2.043-1.645,2.166-2.083
		c0,0,0.973,0.058,1.211,0.077c0.117,0.009,0.018-0.219,0.219-0.641c0,0,0.271-0.04,0.334-0.12c0.186-0.238-0.039-0.915,0.039-1.205
		c0.063-0.222,0.629-0.092,0.813-0.23c0.152-0.117,0.311-0.611-0.49-0.573c0,0-0.563-2.481-2.967-1.48c0,0-1.123,0.638-0.842,1.882
		c0,0-5.43,0.019-5.252,0.601c0,0-3.242,0.481-2.521,0.92c0,0,0.16,0.201,0.361,0.322c0,0-1.926,1.482-0.803,2.687
		c0,0,0.723,1.159,3.889,1.883c0,0,1.016,0.142,1.627,0.825c-1.883,0.068-3.541-0.445-3.541-0.445
		c-4.262-1.172-6.973,1.668-6.973,1.668c-2.383-0.541-4.041-0.029-4.887,0.879C254.106,23.309,251.433,23.463,251.429,23.475z
		 M283.437,18.811c0.006-0.389-0.021-0.651-0.021-0.651c0-2.503,0.67-1.963,0.67-1.963c-0.064,1.078,0.932,1.987,1.373,2.335
		C284.917,18.631,284.241,18.734,283.437,18.811z M281.995,29.769c0.338-0.919,2.006-1.421,2.006-1.421
		C283.247,29.852,281.995,29.769,281.995,29.769z M272.878,19.336h0.779c-0.174,0.127-0.361,0.244-0.547,0.342L272.878,19.336z"/>
</g>
<path fill="#38B09B" d="M25.895,38.445c0,0.605-0.247,1.067-0.74,1.385c-0.494,0.314-1.195,0.447-2.107,0.398l-1.024-0.076
	c-4.251-0.305-6.377-2.582-6.377-6.834v-8.275h-1.899c-0.683,0-1.208-0.151-1.575-0.454c-0.367-0.304-0.551-0.746-0.551-1.328
	s0.184-1.025,0.551-1.329c0.367-0.305,0.892-0.456,1.575-0.456h1.898v-3.492c0-0.683,0.214-1.227,0.646-1.632
	c0.43-0.405,1.012-0.607,1.746-0.607c0.709,0,1.278,0.202,1.709,0.607c0.429,0.405,0.645,0.949,0.645,1.632v3.492h3.227
	c0.684,0,1.208,0.151,1.575,0.456c0.366,0.304,0.55,0.747,0.55,1.329s-0.184,1.024-0.55,1.328c-0.367,0.303-0.892,0.454-1.575,0.454
	h-3.228v8.617c0,1.873,0.861,2.873,2.581,3l1.025,0.075C25.262,36.811,25.895,37.381,25.895,38.445z"/>
<path fill="#38B09B" d="M42.161,22.937c1.252,1.278,1.878,3.222,1.878,5.827v9.263c0,0.683-0.203,1.222-0.607,1.612
	c-0.405,0.395-0.962,0.59-1.67,0.59c-0.659,0-1.196-0.203-1.614-0.609c-0.417-0.401-0.626-0.936-0.626-1.593v-0.835
	c-0.43,0.986-1.107,1.76-2.031,2.314c-0.923,0.557-1.993,0.836-3.208,0.836c-1.24,0-2.367-0.254-3.378-0.76
	c-1.013-0.506-1.81-1.201-2.391-2.088c-0.583-0.886-0.874-1.873-0.874-2.961c0-1.367,0.347-2.441,1.044-3.228
	c0.696-0.784,1.827-1.354,3.397-1.708c1.568-0.354,3.732-0.532,6.491-0.532h0.949v-0.872c0-1.238-0.265-2.146-0.797-2.714
	c-0.531-0.569-1.392-0.854-2.581-0.854c-0.734,0-1.48,0.108-2.24,0.324c-0.759,0.215-1.658,0.523-2.695,0.93
	c-0.659,0.328-1.14,0.492-1.443,0.492c-0.455,0-0.829-0.164-1.12-0.492c-0.291-0.329-0.436-0.76-0.436-1.291
	c0-0.43,0.107-0.803,0.322-1.119c0.215-0.316,0.575-0.614,1.082-0.893c0.885-0.48,1.941-0.859,3.169-1.14
	c1.228-0.278,2.436-0.418,3.625-0.418C38.991,21.02,40.908,21.658,42.161,22.937z M38.327,35.654
	c0.797-0.849,1.195-1.943,1.195-3.283v-0.799h-0.684c-1.695,0-3.011,0.076-3.947,0.229c-0.937,0.151-1.608,0.416-2.012,0.797
	c-0.404,0.379-0.607,0.897-0.607,1.558c0,0.811,0.284,1.475,0.854,1.991c0.569,0.521,1.271,0.778,2.107,0.778
	C36.498,36.925,37.53,36.502,38.327,35.654z"/>
<path fill="#38B09B" d="M66.247,28.65v9.338c0,0.709-0.209,1.266-0.627,1.67s-0.994,0.607-1.728,0.607s-1.316-0.203-1.746-0.607
	c-0.43-0.404-0.646-0.961-0.646-1.67V28.65c0-1.342-0.272-2.322-0.815-2.941c-0.545-0.62-1.399-0.932-2.563-0.932
	c-1.367,0-2.461,0.432-3.284,1.291c-0.822,0.859-1.233,2.012-1.233,3.454v8.466c0,0.709-0.216,1.266-0.646,1.67
	c-0.43,0.404-1.012,0.607-1.746,0.607c-0.734,0-1.31-0.203-1.727-0.607s-0.626-0.961-0.626-1.67V15.288
	c0-0.657,0.222-1.189,0.665-1.594c0.442-0.405,1.019-0.608,1.727-0.608s1.278,0.19,1.708,0.57c0.429,0.379,0.646,0.897,0.646,1.556
	v8.845c0.632-0.986,1.474-1.74,2.524-2.258c1.05-0.52,2.245-0.779,3.587-0.779C64.069,21.02,66.247,23.563,66.247,28.65z"/>
<path fill="#38B09B" d="M97.771,22.824c1.075,1.201,1.614,3.144,1.614,5.826v9.338c0,0.734-0.222,1.297-0.664,1.688
	c-0.444,0.392-1.019,0.589-1.727,0.589c-0.684,0-1.248-0.197-1.689-0.589c-0.443-0.392-0.665-0.954-0.665-1.688V28.65
	c0-1.393-0.247-2.385-0.74-2.98c-0.494-0.594-1.247-0.893-2.259-0.893c-1.24,0-2.228,0.426-2.96,1.271
	c-0.734,0.85-1.101,2.006-1.101,3.474v8.466c0,0.734-0.222,1.297-0.664,1.688c-0.443,0.392-1.006,0.589-1.689,0.589
	s-1.252-0.197-1.708-0.589s-0.683-0.954-0.683-1.688V28.65c0-1.393-0.247-2.385-0.74-2.98c-0.494-0.594-1.248-0.893-2.259-0.893
	c-1.24,0-2.221,0.426-2.941,1.271c-0.721,0.85-1.082,2.006-1.082,3.474v8.466c0,0.734-0.228,1.297-0.683,1.688
	c-0.456,0.392-1.025,0.589-1.708,0.589c-0.683,0-1.247-0.197-1.689-0.589c-0.442-0.392-0.665-0.954-0.665-1.688V23.299
	c0-0.708,0.228-1.254,0.683-1.633c0.456-0.381,1.025-0.569,1.709-0.569c0.657,0,1.195,0.185,1.613,0.55
	c0.418,0.368,0.626,0.893,0.626,1.575v0.912c0.583-1.013,1.36-1.785,2.334-2.316c0.974-0.53,2.094-0.797,3.36-0.797
	c2.784,0,4.644,1.164,5.581,3.492c0.556-1.063,1.378-1.91,2.467-2.543c1.087-0.634,2.315-0.949,3.682-0.949
	C95.146,21.02,96.696,21.621,97.771,22.824z"/>
<path fill="#38B09B" d="M104.509,17.015c-0.506-0.468-0.758-1.082-0.758-1.84c0-0.759,0.252-1.367,0.758-1.823
	c0.506-0.456,1.19-0.683,2.051-0.683c0.834,0,1.511,0.228,2.03,0.683c0.519,0.456,0.779,1.063,0.779,1.823
	c0,0.759-0.254,1.373-0.76,1.84c-0.506,0.468-1.189,0.703-2.049,0.703C105.699,17.718,105.015,17.482,104.509,17.015z
	 M104.87,39.677c-0.442-0.392-0.664-0.954-0.664-1.688V23.336c0-0.734,0.222-1.291,0.664-1.67c0.442-0.381,1.007-0.57,1.69-0.57
	s1.252,0.189,1.708,0.57c0.456,0.379,0.683,0.936,0.683,1.67v14.652c0,0.733-0.228,1.297-0.683,1.688s-1.025,0.589-1.708,0.589
	C105.876,40.266,105.312,40.068,104.87,39.677z"/>
<path fill="#38B09B" d="M129.601,22.918c1.088,1.266,1.633,3.176,1.633,5.731v9.339c0,0.709-0.209,1.266-0.627,1.67
	c-0.418,0.403-0.993,0.606-1.727,0.606c-0.734,0-1.316-0.203-1.746-0.606c-0.431-0.404-0.645-0.961-0.645-1.67v-9.072
	c0-1.443-0.272-2.492-0.816-3.151c-0.544-0.657-1.398-0.987-2.563-0.987c-1.367,0-2.461,0.432-3.284,1.291
	c-0.822,0.859-1.234,2.012-1.234,3.454v8.466c0,0.709-0.215,1.266-0.645,1.67c-0.431,0.404-1.013,0.607-1.746,0.607
	c-0.734,0-1.311-0.203-1.728-0.607s-0.626-0.961-0.626-1.67V23.299c0-0.658,0.215-1.19,0.645-1.596
	c0.43-0.403,1.012-0.606,1.746-0.606c0.658,0,1.196,0.194,1.614,0.588c0.417,0.394,0.625,0.906,0.625,1.537v1.024
	c0.632-1.037,1.481-1.834,2.543-2.391c1.063-0.557,2.265-0.836,3.606-0.836C126.855,21.02,128.512,21.652,129.601,22.918z"/>
<path fill="#141414" d="M153.326,37.988c0,0.582-0.209,1.102-0.627,1.557s-0.904,0.685-1.461,0.685
	c-0.557,0-1.076-0.229-1.556-0.685l-8.883-8.049v6.492c0,0.734-0.229,1.291-0.684,1.67s-1.025,0.57-1.709,0.57
	s-1.246-0.191-1.688-0.57c-0.443-0.379-0.665-0.936-0.665-1.67V15.327c0-0.734,0.222-1.291,0.665-1.67
	c0.442-0.38,1.006-0.57,1.688-0.57c0.684,0,1.254,0.19,1.709,0.57c0.455,0.379,0.684,0.936,0.684,1.67v14.272l8.121-7.782
	c0.457-0.455,0.977-0.684,1.557-0.684c0.583,0,1.089,0.217,1.519,0.646c0.432,0.43,0.646,0.937,0.646,1.519
	c0,0.581-0.24,1.114-0.723,1.593l-5.958,5.543l6.605,5.922C153.072,36.836,153.326,37.381,153.326,37.988z"/>
<path fill="#141414" d="M172.797,21.703c0.432,0.404,0.646,0.949,0.646,1.633v14.729c0,0.659-0.221,1.189-0.664,1.596
	c-0.441,0.403-1.018,0.606-1.727,0.606c-0.684,0-1.229-0.188-1.633-0.569c-0.404-0.38-0.609-0.897-0.609-1.558v-0.947
	c-0.58,1.013-1.365,1.79-2.352,2.334s-2.102,0.816-3.342,0.816c-4.555,0-6.832-2.558-6.832-7.668v-9.339
	c0-0.684,0.215-1.229,0.646-1.633c0.428-0.403,0.998-0.606,1.707-0.606c0.732,0,1.314,0.203,1.746,0.606
	c0.43,0.404,0.645,0.949,0.645,1.633v9.375c0,1.318,0.266,2.291,0.797,2.925c0.533,0.632,1.367,0.948,2.506,0.948
	c1.316,0,2.373-0.438,3.172-1.311c0.795-0.873,1.195-2.029,1.195-3.473v-8.465c0-0.685,0.213-1.229,0.645-1.633
	c0.43-0.404,1-0.607,1.709-0.607C171.785,21.096,172.367,21.299,172.797,21.703z"/>
<path fill="#141414" d="M179.041,39.677c-0.441-0.392-0.664-0.954-0.664-1.688V15.327c0-0.734,0.223-1.291,0.664-1.67
	c0.443-0.38,1.008-0.57,1.689-0.57c0.684,0,1.252,0.19,1.709,0.57c0.455,0.379,0.684,0.936,0.684,1.67v22.662
	c0,0.734-0.229,1.297-0.684,1.688c-0.457,0.392-1.025,0.589-1.709,0.589C180.049,40.266,179.486,40.068,179.041,39.677z"/>
<path fill="#141414" d="M204.418,21.703c0.432,0.404,0.646,0.949,0.646,1.633v14.729c0,0.659-0.223,1.189-0.664,1.596
	c-0.443,0.404-1.021,0.606-1.729,0.606c-0.684,0-1.229-0.188-1.633-0.569c-0.402-0.38-0.607-0.897-0.607-1.558v-0.947
	c-0.58,1.013-1.365,1.79-2.352,2.334c-0.988,0.544-2.102,0.816-3.342,0.816c-4.555,0-6.832-2.558-6.832-7.668v-9.339
	c0-0.684,0.215-1.229,0.646-1.633c0.43-0.403,0.998-0.606,1.707-0.606c0.73,0,1.314,0.203,1.744,0.606
	c0.432,0.404,0.646,0.949,0.646,1.633v9.375c0,1.318,0.264,2.291,0.795,2.925c0.533,0.632,1.367,0.948,2.506,0.948
	c1.316,0,2.375-0.438,3.172-1.311c0.795-0.873,1.193-2.029,1.193-3.473v-8.465c0-0.685,0.215-1.229,0.646-1.633
	c0.43-0.404,0.998-0.607,1.707-0.607C203.406,21.096,203.988,21.299,204.418,21.703z"/>
<path fill="#141414" d="M224.955,22.197c1.24,0.783,2.209,1.896,2.904,3.34c0.693,1.444,1.043,3.125,1.043,5.049
	c0,1.925-0.35,3.625-1.043,5.105c-0.695,1.48-1.67,2.626-2.922,3.436c-1.254,0.811-2.676,1.216-4.271,1.216
	c-1.342,0-2.537-0.291-3.586-0.873c-1.051-0.582-1.854-1.392-2.412-2.431v0.949c0,0.685-0.215,1.229-0.645,1.631
	c-0.432,0.406-1,0.609-1.709,0.609c-0.707,0-1.271-0.203-1.689-0.609c-0.416-0.401-0.625-0.946-0.625-1.631V15.288
	c0-0.657,0.223-1.189,0.664-1.594c0.443-0.405,1.02-0.608,1.729-0.608c0.707,0,1.277,0.19,1.707,0.57
	c0.43,0.379,0.645,0.897,0.645,1.556v8.958c0.557-1.012,1.355-1.789,2.395-2.334c1.037-0.545,2.213-0.816,3.527-0.816
	C222.285,21.02,223.713,21.412,224.955,22.197z M222.906,35.064c0.834-1.063,1.252-2.555,1.252-4.479
	c0-1.898-0.412-3.354-1.232-4.365c-0.822-1.014-1.992-1.52-3.512-1.52s-2.689,0.513-3.514,1.537c-0.822,1.024-1.232,2.5-1.232,4.424
	s0.41,3.402,1.232,4.44c0.824,1.037,1.994,1.558,3.514,1.558C220.906,36.66,222.07,36.127,222.906,35.064z"/>
<path fill="#141414" d="M249.211,21.703c0.43,0.404,0.646,0.949,0.646,1.633v14.729c0,0.659-0.225,1.189-0.666,1.596
	c-0.443,0.404-1.02,0.606-1.725,0.606c-0.686,0-1.23-0.188-1.635-0.569c-0.404-0.38-0.607-0.897-0.607-1.558v-0.947
	c-0.582,1.013-1.367,1.79-2.354,2.334s-2.102,0.816-3.34,0.816c-4.555,0-6.834-2.558-6.834-7.668v-9.339
	c0-0.684,0.217-1.229,0.646-1.633c0.428-0.403,0.998-0.606,1.707-0.606c0.732,0,1.316,0.203,1.746,0.606
	c0.43,0.404,0.645,0.949,0.645,1.633v9.375c0,1.318,0.266,2.291,0.799,2.925c0.529,0.632,1.365,0.948,2.504,0.948
	c1.316,0,2.375-0.438,3.17-1.311c0.799-0.873,1.197-2.029,1.197-3.473v-8.465c0-0.685,0.215-1.229,0.645-1.633
	c0.43-0.404,0.998-0.607,1.711-0.607C248.199,21.096,248.781,21.299,249.211,21.703z"/>
</svg>
