<?xml version="1.0" encoding="utf-8"?>
<!-- Generator: Adobe Illustrator 16.0.0, SVG Export Plug-In . SVG Version: 6.00 Build 0)  -->
<!DOCTYPE svg PUBLIC "-//W3C//DTD SVG 1.1//EN" "http://www.w3.org/Graphics/SVG/1.1/DTD/svg11.dtd">
<svg version="1.1" id="Layer_1" xmlns="http://www.w3.org/2000/svg" xmlns:xlink="http://www.w3.org/1999/xlink" x="0px" y="0px"
	 width="244px" height="50px" viewBox="18.5 0 244 50" enable-background="new 18.5 0 244 50" xml:space="preserve">
<path fill="#38B09B" d="M34.895,37.445c0,0.604-0.247,1.066-0.74,1.385c-0.494,0.314-1.195,0.447-2.107,0.398l-1.024-0.076
	c-4.251-0.305-6.377-2.582-6.377-6.834v-8.275h-1.899c-0.683,0-1.208-0.151-1.575-0.454c-0.367-0.304-0.551-0.746-0.551-1.328
	c0-0.582,0.184-1.025,0.551-1.329c0.367-0.305,0.892-0.456,1.575-0.456h1.898v-3.492c0-0.683,0.214-1.227,0.646-1.632
	c0.43-0.405,1.012-0.607,1.746-0.607c0.709,0,1.278,0.202,1.709,0.607c0.429,0.405,0.645,0.949,0.645,1.632v3.492h3.227
	c0.684,0,1.208,0.151,1.575,0.456c0.366,0.304,0.55,0.747,0.55,1.329c0,0.582-0.184,1.024-0.55,1.328
	c-0.367,0.303-0.892,0.454-1.575,0.454h-3.228v8.617c0,1.873,0.861,2.873,2.581,3l1.025,0.074
	C34.262,35.811,34.895,36.381,34.895,37.445z"/>
<path fill="#38B09B" d="M51.161,21.937c1.252,1.278,1.878,3.222,1.878,5.827v9.264c0,0.683-0.203,1.222-0.607,1.611
	c-0.405,0.396-0.962,0.59-1.67,0.59c-0.659,0-1.196-0.203-1.614-0.608c-0.417-0.401-0.626-0.937-0.626-1.593v-0.836
	c-0.43,0.986-1.107,1.761-2.031,2.314c-0.923,0.557-1.993,0.836-3.208,0.836c-1.24,0-2.367-0.254-3.378-0.76
	c-1.013-0.506-1.81-1.201-2.391-2.088c-0.583-0.887-0.874-1.873-0.874-2.961c0-1.367,0.347-2.441,1.044-3.229
	c0.696-0.783,1.827-1.354,3.397-1.707c1.568-0.354,3.732-0.533,6.491-0.533h0.949v-0.871c0-1.238-0.265-2.146-0.797-2.714
	c-0.531-0.569-1.392-0.854-2.581-0.854c-0.734,0-1.48,0.108-2.24,0.324c-0.759,0.215-1.658,0.523-2.695,0.93
	c-0.659,0.328-1.14,0.492-1.443,0.492c-0.455,0-0.829-0.164-1.12-0.492c-0.291-0.329-0.436-0.76-0.436-1.291
	c0-0.43,0.107-0.803,0.322-1.119c0.215-0.316,0.575-0.614,1.082-0.893c0.885-0.48,1.941-0.859,3.169-1.14
	c1.228-0.278,2.436-0.418,3.625-0.418C47.991,20.02,49.908,20.658,51.161,21.937z M47.327,34.654
	c0.797-0.85,1.195-1.943,1.195-3.283v-0.799h-0.684c-1.695,0-3.011,0.076-3.947,0.229c-0.937,0.151-1.608,0.416-2.012,0.797
	c-0.404,0.379-0.607,0.897-0.607,1.559c0,0.811,0.284,1.475,0.854,1.99c0.569,0.521,1.271,0.778,2.107,0.778
	C45.498,35.925,46.53,35.502,47.327,34.654z"/>
<path fill="#38B09B" d="M75.247,27.65v9.338c0,0.709-0.209,1.266-0.627,1.67s-0.994,0.607-1.728,0.607s-1.316-0.203-1.746-0.607
	s-0.646-0.961-0.646-1.67V27.65c0-1.342-0.272-2.322-0.815-2.941c-0.545-0.62-1.399-0.932-2.563-0.932
	c-1.367,0-2.461,0.432-3.284,1.291c-0.822,0.859-1.233,2.012-1.233,3.454v8.467c0,0.709-0.216,1.266-0.646,1.67
	s-1.012,0.607-1.746,0.607s-1.31-0.203-1.727-0.607s-0.626-0.961-0.626-1.67v-22.7c0-0.657,0.222-1.189,0.665-1.594
	c0.442-0.405,1.019-0.608,1.727-0.608s1.278,0.19,1.708,0.57c0.429,0.379,0.646,0.897,0.646,1.556v8.845
	c0.632-0.986,1.474-1.74,2.524-2.258c1.05-0.52,2.245-0.779,3.587-0.779C73.069,20.02,75.247,22.563,75.247,27.65z"/>
<path fill="#38B09B" d="M106.771,21.824c1.075,1.201,1.614,3.144,1.614,5.826v9.338c0,0.734-0.222,1.297-0.664,1.688
	c-0.444,0.393-1.019,0.59-1.727,0.59c-0.684,0-1.248-0.197-1.689-0.59c-0.443-0.392-0.665-0.953-0.665-1.688V27.65
	c0-1.394-0.247-2.385-0.74-2.98c-0.494-0.594-1.247-0.893-2.259-0.893c-1.24,0-2.228,0.426-2.96,1.271
	c-0.734,0.851-1.101,2.007-1.101,3.474v8.467c0,0.734-0.222,1.297-0.664,1.688c-0.443,0.393-1.006,0.59-1.689,0.59
	s-1.252-0.197-1.708-0.59c-0.456-0.392-0.683-0.953-0.683-1.688V27.65c0-1.394-0.247-2.385-0.74-2.98
	c-0.494-0.594-1.248-0.893-2.259-0.893c-1.24,0-2.221,0.426-2.941,1.271c-0.721,0.851-1.082,2.007-1.082,3.474v8.467
	c0,0.734-0.228,1.297-0.683,1.688c-0.456,0.393-1.025,0.59-1.708,0.59c-0.683,0-1.247-0.197-1.689-0.59
	c-0.442-0.392-0.665-0.953-0.665-1.688V22.299c0-0.708,0.228-1.254,0.683-1.633c0.456-0.381,1.025-0.569,1.709-0.569
	c0.657,0,1.195,0.185,1.613,0.55c0.418,0.368,0.626,0.893,0.626,1.575v0.912c0.583-1.013,1.36-1.785,2.334-2.316
	c0.974-0.53,2.094-0.797,3.36-0.797c2.784,0,4.644,1.164,5.581,3.492c0.556-1.063,1.378-1.91,2.467-2.543
	c1.087-0.634,2.315-0.949,3.682-0.949C104.146,20.02,105.696,20.621,106.771,21.824z"/>
<path fill="#38B09B" d="M113.509,16.015c-0.506-0.468-0.758-1.082-0.758-1.84c0-0.759,0.252-1.367,0.758-1.823
	c0.506-0.456,1.19-0.683,2.051-0.683c0.834,0,1.511,0.228,2.03,0.683c0.519,0.456,0.779,1.063,0.779,1.823
	c0,0.759-0.254,1.373-0.76,1.84c-0.506,0.468-1.189,0.703-2.049,0.703C114.699,16.718,114.015,16.482,113.509,16.015z
	 M113.87,38.677c-0.442-0.392-0.664-0.954-0.664-1.688V22.336c0-0.734,0.222-1.291,0.664-1.67c0.442-0.381,1.007-0.57,1.69-0.57
	s1.252,0.189,1.708,0.57c0.456,0.379,0.683,0.936,0.683,1.67v14.652c0,0.732-0.228,1.297-0.683,1.688s-1.025,0.59-1.708,0.59
	C114.876,39.266,114.312,39.068,113.87,38.677z"/>
<path fill="#38B09B" d="M138.601,21.918c1.088,1.266,1.633,3.176,1.633,5.73v9.34c0,0.709-0.209,1.266-0.627,1.67
	c-0.418,0.402-0.993,0.605-1.727,0.605s-1.316-0.203-1.746-0.605c-0.431-0.404-0.645-0.961-0.645-1.67v-9.072
	c0-1.443-0.272-2.492-0.816-3.151c-0.544-0.657-1.398-0.987-2.563-0.987c-1.367,0-2.461,0.432-3.284,1.291
	c-0.822,0.859-1.234,2.012-1.234,3.455v8.466c0,0.709-0.215,1.266-0.645,1.67c-0.431,0.403-1.013,0.606-1.746,0.606
	c-0.734,0-1.311-0.203-1.728-0.606c-0.417-0.404-0.626-0.961-0.626-1.67v-14.69c0-0.658,0.215-1.19,0.645-1.596
	c0.43-0.403,1.012-0.606,1.746-0.606c0.658,0,1.196,0.194,1.614,0.588c0.417,0.394,0.625,0.906,0.625,1.537v1.024
	c0.632-1.037,1.481-1.834,2.543-2.391c1.063-0.557,2.265-0.836,3.606-0.836C135.855,20.02,137.512,20.652,138.601,21.918z"/>
<path fill="#141414" d="M162.326,36.988c0,0.582-0.209,1.102-0.627,1.557s-0.904,0.686-1.461,0.686s-1.076-0.229-1.557-0.686
	l-8.884-8.049v6.492c0,0.734-0.229,1.291-0.685,1.67c-0.454,0.379-1.024,0.57-1.709,0.57c-0.684,0-1.245-0.191-1.688-0.57
	c-0.443-0.379-0.666-0.936-0.666-1.67V14.327c0-0.734,0.223-1.291,0.666-1.67c0.441-0.38,1.006-0.57,1.688-0.57
	c0.685,0,1.255,0.19,1.709,0.57c0.455,0.379,0.685,0.936,0.685,1.67V28.6l8.121-7.783c0.457-0.455,0.978-0.684,1.558-0.684
	c0.584,0,1.09,0.217,1.52,0.646c0.432,0.43,0.646,0.937,0.646,1.519c0,0.581-0.24,1.114-0.724,1.593l-5.959,5.542l6.604,5.922
	C162.072,35.836,162.326,36.381,162.326,36.988z"/>
<path fill="#141414" d="M181.797,20.703c0.432,0.404,0.646,0.949,0.646,1.633v14.729c0,0.66-0.221,1.189-0.664,1.597
	c-0.441,0.403-1.019,0.606-1.728,0.606c-0.684,0-1.229-0.188-1.633-0.569c-0.403-0.38-0.608-0.897-0.608-1.558v-0.947
	c-0.58,1.013-1.365,1.789-2.353,2.334c-0.987,0.543-2.103,0.815-3.342,0.815c-4.556,0-6.832-2.558-6.832-7.668v-9.339
	c0-0.684,0.215-1.229,0.646-1.633c0.428-0.403,0.998-0.606,1.707-0.606c0.732,0,1.314,0.203,1.746,0.606
	c0.43,0.404,0.645,0.949,0.645,1.633v9.375c0,1.318,0.267,2.291,0.798,2.925c0.532,0.632,1.366,0.948,2.506,0.948
	c1.315,0,2.373-0.438,3.172-1.311c0.795-0.873,1.195-2.029,1.195-3.474v-8.465c0-0.685,0.213-1.229,0.645-1.633
	c0.431-0.404,1-0.607,1.709-0.607C180.785,20.096,181.367,20.299,181.797,20.703z"/>
<path fill="#141414" d="M188.041,38.677c-0.441-0.392-0.664-0.954-0.664-1.688V14.327c0-0.734,0.223-1.291,0.664-1.67
	c0.443-0.38,1.008-0.57,1.689-0.57c0.684,0,1.252,0.19,1.709,0.57c0.455,0.379,0.684,0.936,0.684,1.67v22.662
	c0,0.733-0.229,1.297-0.684,1.688c-0.457,0.392-1.025,0.589-1.709,0.589C189.049,39.266,188.486,39.068,188.041,38.677z"/>
<path fill="#141414" d="M213.418,20.703c0.432,0.404,0.646,0.949,0.646,1.633v14.729c0,0.66-0.224,1.189-0.664,1.597
	c-0.443,0.403-1.021,0.606-1.729,0.606c-0.685,0-1.229-0.188-1.633-0.569c-0.401-0.38-0.606-0.897-0.606-1.558v-0.947
	c-0.58,1.013-1.365,1.789-2.353,2.334c-0.988,0.543-2.103,0.815-3.343,0.815c-4.555,0-6.832-2.558-6.832-7.668v-9.339
	c0-0.684,0.216-1.229,0.646-1.633c0.43-0.403,0.998-0.606,1.707-0.606c0.73,0,1.314,0.203,1.744,0.606
	c0.432,0.404,0.646,0.949,0.646,1.633v9.375c0,1.318,0.264,2.291,0.795,2.925c0.533,0.632,1.367,0.948,2.506,0.948
	c1.316,0,2.375-0.438,3.172-1.311c0.795-0.873,1.193-2.029,1.193-3.474v-8.465c0-0.685,0.215-1.229,0.646-1.633
	c0.431-0.404,0.998-0.607,1.707-0.607C212.406,20.096,212.988,20.299,213.418,20.703z"/>
<path fill="#141414" d="M233.955,21.197c1.24,0.783,2.209,1.896,2.904,3.34c0.692,1.443,1.043,3.125,1.043,5.049
	c0,1.925-0.351,3.625-1.043,5.105c-0.695,1.479-1.67,2.625-2.922,3.436c-1.254,0.811-2.676,1.216-4.271,1.216
	c-1.342,0-2.537-0.291-3.586-0.872c-1.051-0.582-1.854-1.393-2.412-2.432v0.949c0,0.685-0.215,1.229-0.645,1.631
	c-0.433,0.406-1,0.609-1.709,0.609c-0.707,0-1.271-0.203-1.689-0.609c-0.416-0.401-0.625-0.946-0.625-1.631v-22.7
	c0-0.657,0.223-1.189,0.664-1.594c0.443-0.405,1.02-0.608,1.729-0.608c0.707,0,1.277,0.19,1.707,0.57
	c0.43,0.379,0.646,0.897,0.646,1.556v8.958c0.558-1.012,1.354-1.789,2.396-2.334c1.037-0.545,2.213-0.816,3.526-0.816
	C231.285,20.02,232.713,20.412,233.955,21.197z M231.906,34.064c0.834-1.063,1.252-2.556,1.252-4.479
	c0-1.897-0.412-3.354-1.232-4.365c-0.822-1.014-1.992-1.52-3.512-1.52s-2.689,0.513-3.514,1.537c-0.822,1.024-1.232,2.5-1.232,4.424
	c0,1.924,0.41,3.401,1.232,4.44c0.824,1.037,1.994,1.558,3.514,1.558C229.906,35.66,231.07,35.127,231.906,34.064z"/>
<path fill="#141414" d="M258.211,20.703c0.43,0.404,0.646,0.949,0.646,1.633v14.729c0,0.66-0.226,1.189-0.666,1.597
	c-0.443,0.403-1.021,0.606-1.726,0.606c-0.687,0-1.229-0.188-1.635-0.569c-0.404-0.38-0.606-0.897-0.606-1.558v-0.947
	c-0.582,1.013-1.367,1.789-2.354,2.334c-0.987,0.543-2.103,0.815-3.341,0.815c-4.555,0-6.834-2.558-6.834-7.668v-9.339
	c0-0.684,0.218-1.229,0.646-1.633c0.428-0.403,0.998-0.606,1.707-0.606c0.732,0,1.316,0.203,1.746,0.606
	c0.43,0.404,0.645,0.949,0.645,1.633v9.375c0,1.318,0.267,2.291,0.8,2.925c0.528,0.632,1.364,0.948,2.504,0.948
	c1.315,0,2.375-0.438,3.17-1.311c0.799-0.873,1.196-2.029,1.196-3.474v-8.465c0-0.685,0.216-1.229,0.646-1.633
	c0.431-0.404,0.998-0.607,1.711-0.607C257.199,20.096,257.781,20.299,258.211,20.703z"/>
</svg>
