<svg xmlns="http://www.w3.org/2000/svg" width="97.979" height="67.605" viewBox="0 0 97.979 67.605">
  <g id="visibility" transform="translate(1.612 -73.167)">
    <g id="Group_175" data-name="Group 175" transform="translate(0 74.667)">
      <g id="Group_174" data-name="Group 174" transform="translate(0 0)">
        <path id="Path_235" data-name="Path 235" d="M183.588,170.667a12.921,12.921,0,1,0,12.921,12.921A12.931,12.931,0,0,0,183.588,170.667Z" transform="translate(-136.211 -151.285)" fill="#ffa8a8" stroke="#fe6666" stroke-width="3"/>
        <path id="Path_236" data-name="Path 236" d="M47.377,74.667A50.938,50.938,0,0,0,0,106.97a50.895,50.895,0,0,0,94.754,0A50.916,50.916,0,0,0,47.377,74.667Zm0,53.837A21.535,21.535,0,1,1,68.912,106.97,21.543,21.543,0,0,1,47.377,128.5Z" transform="translate(0 -74.667)" fill="#ffa8a8" stroke="#fe6666" stroke-width="3"/>
      </g>
    </g>
  </g>
</svg>
