<svg xmlns="http://www.w3.org/2000/svg" width="30.701" height="30.701" viewBox="0 0 30.701 30.701">
  <path id="share-alt" d="M22.722,16.743A5.964,5.964,0,0,1,28.7,22.722,5.964,5.964,0,0,1,22.722,28.7a5.964,5.964,0,0,1-5.979-5.979q0-.224.037-.635l-6.727-3.364A5.763,5.763,0,0,1,5.979,20.33a5.766,5.766,0,0,1-4.233-1.747A5.76,5.76,0,0,1,0,14.351a5.769,5.769,0,0,1,1.747-4.233A5.763,5.763,0,0,1,5.979,8.371a5.763,5.763,0,0,1,4.073,1.607L16.78,6.615q-.037-.411-.037-.635a5.766,5.766,0,0,1,1.747-4.233,6,6,0,0,1,8.465,0A5.763,5.763,0,0,1,28.7,5.979a5.763,5.763,0,0,1-1.747,4.233,5.984,5.984,0,0,1-8.306.14l-6.727,3.364q.037.411.037.635t-.037.635l6.727,3.364A5.763,5.763,0,0,1,22.722,16.743Z" transform="translate(1 1)" fill="#a8d4ff" stroke="#66b7fe" stroke-width="2"/>
</svg>
