<svg id="trash" xmlns="http://www.w3.org/2000/svg" width="24.151" height="27.867" viewBox="0 0 24.151 27.867">
  <path id="Path_223" data-name="Path 223" d="M12.179,12.375a.929.929,0,0,1,.929.929V24.451a.929.929,0,1,1-1.858,0V13.3A.929.929,0,0,1,12.179,12.375Zm4.644,0a.929.929,0,0,1,.929.929V24.451a.929.929,0,1,1-1.858,0V13.3A.929.929,0,0,1,16.823,12.375ZM22.4,13.3a.929.929,0,1,0-1.858,0V24.451a.929.929,0,1,0,1.858,0Z" transform="translate(-4.748 -2.157)" fill="#3a3a3a"/>
  <path id="Path_224" data-name="Path 224" d="M27.526,5.573a1.858,1.858,0,0,1-1.858,1.858h-.929v16.72a3.716,3.716,0,0,1-3.716,3.716H9.877a3.716,3.716,0,0,1-3.716-3.716V7.431H5.233A1.858,1.858,0,0,1,3.375,5.573V3.716A1.858,1.858,0,0,1,5.233,1.858h6.5A1.858,1.858,0,0,1,13.593,0h3.716a1.858,1.858,0,0,1,1.858,1.858h6.5a1.858,1.858,0,0,1,1.858,1.858ZM8.239,7.431l-.22.11v16.61a1.858,1.858,0,0,0,1.858,1.858H21.024a1.858,1.858,0,0,0,1.858-1.858V7.541l-.219-.11ZM5.233,5.573V3.716H25.668V5.573Z" transform="translate(-3.375 0)" fill="#3a3a3a" fill-rule="evenodd"/>
</svg>
