<svg xmlns="http://www.w3.org/2000/svg" width="28.787" height="23.989" viewBox="0 0 28.787 23.989">
  <path id="twitter-white" d="M28.787,5.807a7.736,7.736,0,0,1-1.075,1.54A7.935,7.935,0,0,1,25.77,8.983q.032.257.048.481a17.467,17.467,0,0,1-1.235,6.691,17.619,17.619,0,0,1-7.012,8.713A18.437,18.437,0,0,1,6.6,26.874,12.6,12.6,0,0,1,0,24.324a12.289,12.289,0,0,0,8.794-2.536c-2.7.068-4.659-1.883-5.584-4.14a3.755,3.755,0,0,0,1.251.064,11.643,11.643,0,0,0,1.412-.193,6.62,6.62,0,0,1-4.012-3.113,6.71,6.71,0,0,1-.674-2.952,5.638,5.638,0,0,0,2.664.8A6.882,6.882,0,0,1,1.235,8a7.874,7.874,0,0,1,.722-3.835A20.17,20.17,0,0,0,8.81,9.3a14.194,14.194,0,0,0,5.375,1.123,7.184,7.184,0,0,1,.722-4.557,6.208,6.208,0,0,1,3.706-2.7,5.471,5.471,0,0,1,5.488,1.7A9.768,9.768,0,0,0,27.92,3.463a5.794,5.794,0,0,1-2.632,3.4,16.687,16.687,0,0,0,3.5-1.059Z" transform="translate(0 -2.999)" fill="#fff"/>
</svg>
