<svg xmlns="http://www.w3.org/2000/svg" width="29.345" height="24.454" viewBox="0 0 29.345 24.454">
  <path id="twitter" d="M29.345,5.861a7.886,7.886,0,0,1-1.1,1.57A8.088,8.088,0,0,1,26.27,9.1q.033.262.049.491a17.806,17.806,0,0,1-1.259,6.821,17.961,17.961,0,0,1-7.148,8.882A18.794,18.794,0,0,1,6.723,27.337,12.847,12.847,0,0,1,0,24.737a12.527,12.527,0,0,0,8.964-2.585c-2.75.069-4.749-1.92-5.692-4.22A3.828,3.828,0,0,0,4.548,18a11.868,11.868,0,0,0,1.44-.2A6.748,6.748,0,0,1,1.9,14.628a6.841,6.841,0,0,1-.687-3.009,5.747,5.747,0,0,0,2.715.818A7.015,7.015,0,0,1,1.259,8.1,8.027,8.027,0,0,1,2,4.192,20.56,20.56,0,0,0,8.98,9.426a14.469,14.469,0,0,0,5.479,1.145A7.323,7.323,0,0,1,15.2,5.925a6.329,6.329,0,0,1,3.778-2.748,5.577,5.577,0,0,1,5.594,1.734,9.957,9.957,0,0,0,3.893-1.44,5.906,5.906,0,0,1-2.683,3.468A17.01,17.01,0,0,0,29.344,5.86Z" transform="translate(0 -2.999)" fill="#1da1f2"/>
</svg>
