<svg xmlns="http://www.w3.org/2000/svg" width="59.524" height="70.829" viewBox="0 0 59.524 70.829">
  <path id="user" d="M56.524,56.127a12.8,12.8,0,0,1-2.76,8.258,8.271,8.271,0,0,1-6.645,3.444H9.406A8.267,8.267,0,0,1,2.76,64.385,12.809,12.809,0,0,1,0,56.127a63.531,63.531,0,0,1,.375-7.088,38.067,38.067,0,0,1,1.391-6.713,22.335,22.335,0,0,1,2.583-5.784A12.372,12.372,0,0,1,8.5,32.611a11.455,11.455,0,0,1,5.941-1.522,19.085,19.085,0,0,0,13.822,5.652,19.085,19.085,0,0,0,13.822-5.652,11.465,11.465,0,0,1,5.939,1.524,12.372,12.372,0,0,1,4.151,3.93,22.335,22.335,0,0,1,2.583,5.784,38.067,38.067,0,0,1,1.391,6.713,63.532,63.532,0,0,1,.375,7.088Zm-11.3-39.17a16.333,16.333,0,0,1-4.968,11.989,16.347,16.347,0,0,1-11.989,4.968,16.328,16.328,0,0,1-11.989-4.968A16.341,16.341,0,0,1,11.3,16.957,16.341,16.341,0,0,1,16.273,4.968,16.328,16.328,0,0,1,28.262,0,16.347,16.347,0,0,1,40.251,4.968,16.333,16.333,0,0,1,45.22,16.957Z" transform="translate(1.5 1.5)" fill="#ffebb5" stroke="#ffc014" stroke-width="3"/>
</svg>
