<svg xmlns="http://www.w3.org/2000/svg" width="24.883" height="27.765" viewBox="0 0 24.883 27.765">
  <g id="writing" transform="translate(0)">
    <g id="Group_106" data-name="Group 106" transform="translate(0)">
      <g id="Group_105" data-name="Group 105" transform="translate(0)">
        <path id="Path_198" data-name="Path 198" d="M119.8,201.085A1.085,1.085,0,0,0,118.715,200H107.544a1.085,1.085,0,1,0,0,2.169h11.171A1.085,1.085,0,0,0,119.8,201.085Z" transform="translate(-102.127 -189.154)" fill="#ffc014"/>
        <path id="Path_199" data-name="Path 199" d="M107.544,280a1.085,1.085,0,0,0,0,2.169h6.785a1.085,1.085,0,0,0,0-2.169Z" transform="translate(-102.127 -264.816)" fill="#ffc014"/>
        <path id="Path_200" data-name="Path 200" d="M34.536,25.6H30.908a2.172,2.172,0,0,1-2.169-2.169V4.338a2.172,2.172,0,0,1,2.169-2.169H44.242a2.172,2.172,0,0,1,2.169,2.169v6.67a1.085,1.085,0,0,0,2.169,0V4.338A4.343,4.343,0,0,0,44.242,0H30.908A4.343,4.343,0,0,0,26.57,4.338V23.427a4.343,4.343,0,0,0,4.338,4.338h3.627a1.085,1.085,0,1,0,0-2.169Z" transform="translate(-26.57)" fill="#ffc014"/>
        <path id="Path_201" data-name="Path 201" d="M255.627,272.976a3.257,3.257,0,0,0-4.6,0l-5.954,5.941a1.085,1.085,0,0,0-.272.453l-1.3,4.269a1.085,1.085,0,0,0,1.327,1.36l4.378-1.213a1.084,1.084,0,0,0,.477-.278l5.942-5.931A3.257,3.257,0,0,0,255.627,272.976Zm-7.272,8.8-2.2.61.645-2.122,4.018-4.009,1.534,1.534Zm5.739-5.729-.21.21-1.534-1.534.209-.209a1.085,1.085,0,0,1,1.535,1.533Z" transform="translate(-231.696 -257.273)" fill="#ffc014"/>
        <path id="Path_202" data-name="Path 202" d="M118.715,120H107.544a1.085,1.085,0,1,0,0,2.169h11.171a1.085,1.085,0,1,0,0-2.169Z" transform="translate(-102.127 -113.493)" fill="#ffc014"/>
      </g>
    </g>
  </g>
</svg>
