<svg xmlns="http://www.w3.org/2000/svg" width="64.698" height="72.19" viewBox="0 0 64.698 72.19">
  <g id="Group_106" data-name="Group 106" transform="translate(0)">
    <g id="Group_105" data-name="Group 105" transform="translate(0)">
      <path id="Path_198" data-name="Path 198" d="M141.144,202.82a2.82,2.82,0,0,0-2.82-2.82H109.279a2.82,2.82,0,1,0,0,5.64h29.045A2.82,2.82,0,0,0,141.144,202.82Z" transform="translate(-95.195 -171.801)" fill="#66b7fe"/>
      <path id="Path_199" data-name="Path 199" d="M109.279,280a2.82,2.82,0,0,0,0,5.64h17.64a2.82,2.82,0,0,0,0-5.64Z" transform="translate(-95.195 -240.521)" fill="#66b7fe"/>
      <path id="Path_200" data-name="Path 200" d="M47.281,66.55H37.85a5.646,5.646,0,0,1-5.64-5.64V11.28a5.646,5.646,0,0,1,5.64-5.64H72.519a5.646,5.646,0,0,1,5.64,5.64V28.622a2.82,2.82,0,0,0,5.64,0V11.28A11.293,11.293,0,0,0,72.519,0H37.85A11.292,11.292,0,0,0,26.57,11.28V60.91A11.293,11.293,0,0,0,37.85,72.19h9.431a2.82,2.82,0,0,0,0-5.64Z" transform="translate(-26.57)" fill="#66b7fe"/>
      <path id="Path_201" data-name="Path 201" d="M275.1,274.5a8.469,8.469,0,0,0-11.962,0l-15.482,15.448a2.82,2.82,0,0,0-.706,1.177l-3.372,11.1a2.82,2.82,0,0,0,3.451,3.537l11.382-3.153a2.818,2.818,0,0,0,1.239-.722l15.449-15.42A8.469,8.469,0,0,0,275.1,274.5Zm-18.909,22.869-5.726,1.586,1.676-5.517,10.446-10.423L266.576,287Zm14.923-14.895-.546.545-3.988-3.988.545-.544a2.82,2.82,0,0,1,3.99,3.986Z" transform="translate(-212.877 -233.67)" fill="#66b7fe"/>
      <path id="Path_202" data-name="Path 202" d="M138.324,120H109.279a2.82,2.82,0,1,0,0,5.64h29.045a2.82,2.82,0,1,0,0-5.64Z" transform="translate(-95.195 -103.08)" fill="#66b7fe"/>
    </g>
  </g>
</svg>
